<?xml version="1.0" encoding="UTF-8"?>
<svg width="20px" height="20px" viewBox="0 0 20 20" version="1.1" xmlns="http://www.w3.org/2000/svg" xmlns:xlink="http://www.w3.org/1999/xlink">
    <g id="💻-ID-Dashboard" stroke="none" stroke-width="1" fill="none" fillRule="evenodd">
        <g id="408.4-National-ID-with-single-files-upload" transform="translate(-1035.000000, -843.000000)" fill="#23E6FE">
            <g id="Modal" transform="translate(330.000000, 159.000000)">
                <g id="modal-body" transform="translate(40.000000, 126.000000)">
                    <g id="Expiry" transform="translate(0.000000, 519.000000)">
                        <path d="M682.971246,47 L666.996805,47 L666.996805,43.971 C666.996805,43.435 667.43111,43 667.966254,43 L668.99361,43 L668.99361,45 L670.990415,45 L670.990415,43 L678.977636,43 L678.977636,45 L680.974441,45 L680.974441,43 L681.972843,43 C682.523962,43 682.971246,43.448 682.971246,44 L682.971246,47 Z M682.971246,56 C682.971246,56.55 682.521965,57 681.972843,57 L667.995208,57 C667.444089,57 666.996805,56.552 666.996805,56 L666.996805,49 L682.971246,49 L682.971246,56 Z M665.063898,56.761 C665.063898,57.865 666.021366,59 667.123602,59 L683.098043,59 C684.201278,59 685,57.979 685,56.761 C685,56.372 684.968051,44.36 684.968051,43.708 C684.968051,41.626 684.6875,41 680.974441,41 L680.974441,39 L678.977636,39 L678.977636,41 L670.990415,41 L670.990415,39 L668.99361,39 L668.99361,41 L666.996805,41 C665.898562,41 665,41.9 665,43 L665.063898,56.761 Z" id="icon-calendar"></path>
                    </g>
                </g>
            </g>
        </g>
    </g>
</svg>